<svg xmlns="http://www.w3.org/2000/svg" version="1.1" xmlns:xlink="http://www.w3.org/1999/xlink" xmlns:svgjs="http://svgjs.com/svgjs" width="1650" height="950" preserveAspectRatio="none" viewBox="0 0 1650 950"><g mask="url(&quot;#SvgjsMask1143&quot;)" fill="none"><rect width="1650" height="950" x="0" y="0" fill="rgba(0, 39, 74, 1)"></rect><path d="M0,824.882C148.917,857.639,281.104,717.606,399.164,621.112C506.995,532.979,605.582,428.507,647.468,295.689C686.972,170.423,657.678,37.153,623.303,-89.617C592.202,-204.31,517.384,-294.33,459.356,-398.034C384.151,-532.435,370.657,-722.781,231.771,-789.339C94.168,-855.282,-79.701,-796.742,-211.235,-719.4C-330.604,-649.211,-355.58,-491.277,-448.989,-389.051C-546.155,-282.714,-739.094,-251.552,-767.726,-110.382C-796.098,29.505,-671.574,154.737,-581.785,265.693C-507.686,357.26,-385.211,385.628,-300.286,467.255C-185.741,577.352,-155.167,790.75,0,824.882" fill="#001930"></path><path d="M1650 1476.008C1747.001 1463.536 1836.938 1420.34 1911.906 1357.534 1980.971 1299.673 2026.432 1220.562 2056.3559999999998 1135.577 2084.36 1056.0430000000001 2075.738 972.914 2077.02 888.604 2078.562 787.179 2118.386 676.741 2064.639 590.713 2009.837 502.997 1902.182 445.997 1798.79 443.268 1699.869 440.657 1633.125 542.212 1540.442 576.88 1457.399 607.942 1355.833 579.807 1286.3890000000001 634.9300000000001 1212.953 693.223 1164.771 785.845 1159.274 879.444 1153.92 970.614 1228.786 1042.571 1257.355 1129.315 1290.667 1230.46 1261.086 1360.469 1340.911 1430.952 1420.573 1501.2910000000002 1544.597 1489.5610000000001 1650 1476.008" fill="#003564"></path></g><defs><mask id="SvgjsMask1143"><rect width="1650" height="950" fill="#ffffff"></rect></mask></defs></svg>